<?xml version="1.0" standalone="no"?>
<!DOCTYPE svg PUBLIC "-//W3C//DTD SVG 1.1//EN" "http://www.w3.org/Graphics/SVG/1.1/DTD/svg11.dtd" >
<svg xmlns="http://www.w3.org/2000/svg">
<metadata>Generated by IcoMoon</metadata>
<defs>
<font id="icomoon" horiz-adv-x="1024">
<font-face units-per-em="1024" ascent="960" descent="-64" />
<missing-glyph horiz-adv-x="1024" />
<glyph unicode="&#x20;" horiz-adv-x="512" d="" />
<glyph unicode="&#xe900;" glyph-name="fire" horiz-adv-x="693" d="M677.734 442.081c-26.636 118.382-91.746 213.087-112.462 233.803-35.514 44.393-68.069 53.272-68.069 53.272s17.757-38.474 20.717-85.827c2.96-44.393-2.96-59.191-20.717-100.624-11.838 41.434-76.948 177.572-121.341 245.642-38.474 65.11-97.665 133.179-159.815 171.653 0-14.798 8.879-47.353 8.879-65.11l5.919-47.353c11.838-94.705-17.757-260.439-65.11-375.861-5.919 38.474-11.838 65.11-20.717 97.665-11.838 56.231-50.312 91.746-50.312 91.746s0-35.514-8.879-91.746c-8.879-56.231-23.676-91.746-44.393-136.139-14.798-38.474-32.555-79.908-38.474-124.301-17.757-109.503 5.919-195.329 79.908-272.277l14.798-14.798c8.879-8.879 17.757-14.798 26.636-23.676 17.757-14.798 71.029-56.231 156.855-62.15 0 0 2.96 0 2.96 0 14.798 0 29.595 11.838 29.595 26.636 0 17.757-11.838 29.595-26.636 32.555-68.069 5.919-109.503 41.434-121.341 50.312-8.879 5.919-14.798 14.798-23.676 20.717l-11.838 11.838c-59.191 62.15-76.948 130.22-62.15 221.965 5.919 38.474 20.717 73.988 35.514 112.462 2.96 8.879 8.879 20.717 11.838 32.555 2.96-29.595 5.919-56.231 8.879-73.988l5.919-91.746 50.312 76.948c59.191 91.746 109.503 281.156 118.382 420.254 0 11.838 0 26.636 0 38.474 79.908-115.422 153.896-278.197 168.694-352.185l11.838-56.231 38.474 44.393c20.717 20.717 44.393 73.988 59.191 124.301 17.757-35.514 38.474-82.867 50.312-139.098 20.717-91.746 23.676-227.884-82.867-349.225-17.757-20.717-59.191-82.867-142.058-88.786-17.757 0-29.595-14.798-26.636-32.555 0-14.798 14.798-26.636 29.595-26.636 0 0 0 0 2.96 0 71.029 2.96 121.341 38.474 180.532 106.543 115.422 136.139 112.462 290.035 88.786 396.578z" />
<glyph unicode="&#xe901;" glyph-name="like" horiz-adv-x="1092" d="M1092.267 438.898c0 72.818-56.889 111.502-136.533 111.502h-229.831c15.929 61.44 25.031 120.604 25.031 170.667 0 197.973-54.613 238.933-102.4 238.933-31.858 0-54.613-2.276-86.471-22.756-9.102-4.551-13.653-13.653-15.929-22.756l-34.133-184.32c-31.858-86.471-109.227-161.564-177.493-218.453-11.378 22.756-34.133 38.684-61.44 38.684h-204.8c-38.684 0-68.267-29.582-68.267-68.267v-477.867c0-38.684 29.582-68.267 68.267-68.267h204.8c36.409 0 63.716 27.307 68.267 61.44 18.204-4.551 36.409-13.653 52.338-22.756 36.409-18.204 75.093-36.409 118.329-36.409h325.404c68.267 0 118.329 54.613 118.329 102.4 0 9.102 0 18.204-2.276 25.031 43.236 15.929 70.542 52.338 70.542 93.298 0 20.48-4.551 38.684-11.378 52.338 25.031 18.204 52.338 47.787 52.338 84.196 0 18.204-9.102 40.96-22.756 56.889 29.582 22.756 50.062 54.613 50.062 86.471zM273.067 4.267h-204.8v477.867h204.8v-477.867zM969.387 370.631c-6.827-22.756 27.307-31.858 27.307-72.818 0-43.236-52.338-43.236-59.164-63.716-9.102-25.031 15.929-34.133 15.929-75.093 0-2.276 0-4.551 0-6.827-6.827-34.133-59.164-36.409-68.267-50.062-9.102-15.929 2.276-25.031 2.276-61.44 0-20.48-22.756-34.133-50.062-34.133h-325.404c-25.031 0-56.889 13.653-86.471 29.582-27.307 13.653-54.613 27.307-84.196 34.133v361.813c84.196 63.716 193.422 161.564 236.658 279.893 0 2.276 0 4.551 2.276 4.551l31.858 170.667c11.378 4.551 20.48 4.551 38.684 4.551 6.827 0 34.133-40.96 34.133-170.667 0-50.062-9.102-106.951-27.307-170.667h-9.102c-18.204 0-34.133-15.929-34.133-34.133s15.929-34.133 34.133-34.133h307.2c34.133 0 65.991-15.929 65.991-43.236 0-43.236-45.511-47.787-52.338-68.267z" />
<glyph unicode="&#xe902;" glyph-name="dislike" horiz-adv-x="1092" d="M0 457.102c0-72.818 56.889-111.502 136.533-111.502h229.831c-15.929-61.44-25.031-120.604-25.031-170.667 0-197.973 54.613-238.933 102.4-238.933 31.858 0 54.613 2.276 86.471 22.756 9.102 4.551 13.653 13.653 15.929 22.756l34.133 184.32c31.858 86.471 109.227 161.564 177.493 218.453 11.378-22.756 34.133-38.684 61.44-38.684h204.8c38.684 0 68.267 29.582 68.267 68.267v477.867c0 38.684-29.582 68.267-68.267 68.267h-204.8c-36.409 0-63.716-27.307-68.267-61.44-18.204 4.551-36.409 13.653-52.338 22.756-36.409 18.204-75.093 36.409-118.329 36.409h-325.404c-68.267 0-118.329-54.613-118.329-102.4 0-9.102 0-18.204 2.276-25.031-43.236-15.929-70.542-52.338-70.542-93.298 0-20.48 4.551-38.684 11.378-52.338-25.031-18.204-52.338-47.787-52.338-84.196 0-18.204 9.102-40.96 22.756-56.889-29.582-22.756-50.062-54.613-50.062-86.471zM819.2 891.733h204.8v-477.867h-204.8v477.867zM122.88 525.369c6.827 22.756-27.307 31.858-27.307 72.818 0 43.236 52.338 43.236 59.164 63.716 9.102 25.031-15.929 34.133-15.929 75.093 0 2.276 0 4.551 0 6.827 6.827 34.133 59.164 36.409 68.267 50.062 9.102 15.929-2.276 25.031-2.276 61.44 0 20.48 22.756 34.133 50.062 34.133h325.404c25.031 0 56.889-13.653 86.471-29.582 27.307-13.653 54.613-27.307 84.196-34.133v-361.813c-84.196-63.716-193.422-161.564-236.658-279.893 0-2.276 0-4.551-2.276-4.551l-31.858-170.667c-11.378-4.551-20.48-4.551-38.684-4.551-6.827 0-34.133 40.96-34.133 170.667 0 50.062 9.102 106.951 27.307 170.667h9.102c18.204 0 34.133 15.929 34.133 34.133s-15.929 34.133-34.133 34.133h-307.2c-34.133 0-65.991 15.929-65.991 43.236 0 43.236 45.511 47.787 52.338 68.267z" />
<glyph unicode="&#xe903;" glyph-name="calculator" horiz-adv-x="751" d="M597.333 413.867h-136.533c-10.24 0-17.067 6.827-17.067 17.067s6.827 17.067 17.067 17.067h136.533c10.24 0 17.067-6.827 17.067-17.067s-6.827-17.067-17.067-17.067zM597.333 174.933h-136.533c-10.24 0-17.067 6.827-17.067 17.067s6.827 17.067 17.067 17.067h136.533c10.24 0 17.067-6.827 17.067-17.067s-6.827-17.067-17.067-17.067zM290.133 413.867h-136.533c-10.24 0-17.067 6.827-17.067 17.067s6.827 17.067 17.067 17.067h136.533c10.24 0 17.067-10.24 17.067-17.067s-6.827-17.067-17.067-17.067zM221.867 345.6c-10.24 0-17.067 6.827-17.067 17.067v136.533c0 6.827 6.827 17.067 17.067 17.067s17.067-10.24 17.067-17.067v-136.533c0-10.24-6.827-17.067-17.067-17.067zM290.133 106.667c-3.413 0-10.24 0-13.653 3.413l-133.12 133.12c-6.827 6.827-6.827 17.067 0 23.893s17.067 6.827 23.893 0l133.12-133.12c6.827-6.827 6.827-17.067 0-23.893-3.413-3.413-6.827-3.413-10.24-3.413zM153.6 106.667c-3.413 0-10.24 0-13.653 3.413-6.827 6.827-6.827 17.067 0 23.893l133.12 133.12c6.827 6.827 17.067 6.827 23.893 0s6.827-17.067 0-23.893l-133.12-133.12c0-3.413-3.413-3.413-10.24-3.413zM529.067 243.2c-3.413 0-10.24 3.413-10.24 6.827-3.413 3.413-6.827 6.827-6.827 10.24s0 3.413 0 6.827 3.413 3.413 3.413 6.827c6.827 6.827 17.067 6.827 23.893 0 3.413 0 3.413-3.413 3.413-6.827s0-3.413 0-6.827 0-10.24-6.827-10.24c0 0-3.413-3.413-6.827-3.413 3.413-3.413 3.413-3.413 0-3.413zM529.067 106.667c-3.413 0-10.24 3.413-10.24 6.827-3.413 3.413-6.827 6.827-6.827 10.24s0 3.413 0 6.827 3.413 3.413 3.413 6.827c6.827 6.827 17.067 6.827 23.893 0 3.413-3.413 6.827-6.827 6.827-13.653 0-3.413 0-3.413 0-6.827s-3.413-3.413-3.413-6.827c0 0-3.413-3.413-6.827-3.413s-3.413 0-6.827 0zM665.6-64h-580.267c-47.787 0-85.333 37.547-85.333 85.333v853.333c0 47.787 37.547 85.333 85.333 85.333h580.267c47.787 0 85.333-37.547 85.333-85.333v-853.333c0-47.787-37.547-85.333-85.333-85.333zM85.333 925.867c-27.307 0-51.2-23.893-51.2-51.2v-853.333c0-27.307 23.893-51.2 51.2-51.2h580.267c27.307 0 51.2 23.893 51.2 51.2v853.333c0 27.307-23.893 51.2-51.2 51.2h-580.267zM597.333 618.667h-443.733c-10.24 0-17.067 6.827-17.067 17.067v170.667c0 10.24 6.827 17.067 17.067 17.067h443.733c10.24 0 17.067-6.827 17.067-17.067v-170.667c0-10.24-6.827-17.067-17.067-17.067zM170.667 652.8h409.6v136.533h-409.6v-136.533z" />
<glyph unicode="&#xe904;" glyph-name="share" d="M346.453 554.325l288.683 182.101 18.176-28.885-288.683-182.101zM200.533 247.467c-110.933 0-200.533 89.6-200.533 200.533s89.6 200.533 200.533 200.533 200.533-89.6 200.533-200.533-89.6-200.533-200.533-200.533zM200.533 614.4c-89.6 0-166.4-72.533-166.4-166.4 0-89.6 72.533-166.4 166.4-166.4s166.4 72.533 166.4 166.4-76.8 166.4-166.4 166.4zM827.733 558.933c-110.933 0-200.533 89.6-200.533 200.533s89.6 200.533 200.533 200.533 196.267-89.6 196.267-200.533-89.6-200.533-196.267-200.533zM827.733 925.867c-89.6 0-166.4-72.533-166.4-166.4 0-89.6 76.8-166.4 166.4-166.4s166.4 72.533 166.4 166.4c-4.267 93.867-76.8 166.4-166.4 166.4zM827.733-64c-110.933 0-200.533 89.6-200.533 200.533s89.6 200.533 200.533 200.533 200.533-89.6 200.533-200.533-93.867-200.533-200.533-200.533zM827.733 302.933c-89.6 0-166.4-76.8-166.4-166.4s76.8-166.4 166.4-166.4c89.6 0 166.4 76.8 166.4 166.4s-76.8 166.4-166.4 166.4zM331.52 323.755l16.213 30.037 296.832-159.744-16.213-30.037z" />
<glyph unicode="&#xe905;" glyph-name="plus" d="M950.857 521.143h-365.714v365.714c0 40.229-32.914 73.143-73.143 73.143s-73.143-32.914-73.143-73.143v-365.714h-365.714c-40.229 0-73.143-32.914-73.143-73.143s32.914-73.143 73.143-73.143h365.714v-365.714c0-40.229 32.914-73.143 73.143-73.143s73.143 32.914 73.143 73.143v365.714h365.714c40.229 0 73.143 32.914 73.143 73.143s-32.914 73.143-73.143 73.143z" />
<glyph unicode="&#xe906;" glyph-name="linear_arr_down" horiz-adv-x="515" d="M257.652-64c-6.606 0-19.819 0-26.426 6.606l-224.619 224.619c-13.213 13.213-13.213 33.032 0 46.245s33.032 13.213 46.245 0l198.194-198.194 198.194 198.194c13.213 13.213 33.032 13.213 46.245 0s13.213-33.032 0-46.245l-224.619-224.619c0-6.606-6.606-6.606-13.213-6.606zM257.652-64c-19.819 0-33.032 13.213-33.032 33.032v957.935c0 19.819 13.213 33.032 33.032 33.032s33.032-13.213 33.032-33.032v-957.935c0-19.819-13.213-33.032-33.032-33.032z" />
<glyph unicode="&#xe907;" glyph-name="linear_arr_left" horiz-adv-x="2035" d="M0 448c0 13.128 0 39.385 13.128 52.513l446.359 446.359c26.256 13.128 65.641 13.128 91.897 0s26.256-65.641 0-91.897l-393.846-393.846 393.846-393.846c26.256-26.256 26.256-65.641 0-91.897s-65.641-26.256-91.897 0l-446.359 433.231c-13.128 13.128-13.128 26.256-13.128 39.385zM0 448c0 39.385 26.256 65.641 65.641 65.641h1903.59c39.385 0 65.641-26.256 65.641-65.641s-26.256-65.641-65.641-65.641h-1903.59c-39.385 0-65.641 26.256-65.641 65.641z" />
<glyph unicode="&#xe908;" glyph-name="linear_arr_right" horiz-adv-x="2035" d="M2034.872 448c0-13.128 0-39.385-13.128-52.513l-446.359-433.231c-26.256-26.256-65.641-26.256-91.897 0s-26.256 65.641 0 91.897l393.846 393.846-393.846 393.846c-26.256 26.256-26.256 65.641 0 91.897s65.641 26.256 91.897 0l446.359-446.359c13.128 0 13.128-26.256 13.128-39.385zM2034.872 448c0-39.385-26.256-65.641-65.641-65.641h-1903.59c-39.385 0-65.641 26.256-65.641 65.641s26.256 65.641 65.641 65.641h1903.59c39.385 0 65.641-26.256 65.641-65.641z" />
<glyph unicode="&#xe909;" glyph-name="linear_arr_up" horiz-adv-x="515" d="M257.652 960c6.606 0 13.213 0 19.819-6.606l224.619-224.619c13.213-13.213 13.213-33.032 0-46.245s-33.032-13.213-46.245 0l-198.194 198.194-198.194-198.194c-13.213-13.213-33.032-13.213-46.245 0s-13.213 33.032-6.606 46.245l224.619 224.619c6.606 6.606 19.819 6.606 26.426 6.606zM257.652 960c19.819 0 33.032-13.213 33.032-33.032v-957.935c0-19.819-13.213-33.032-33.032-33.032s-33.032 13.213-33.032 33.032v957.935c0 19.819 13.213 33.032 33.032 33.032z" />
<glyph unicode="&#xe90a;" glyph-name="attach" horiz-adv-x="1022" d="M947.835 372.443l-580.068 587.557-44.611-45.187 580.068-587.557c73.925-74.949 73.925-196.3 0-271.057-73.925-74.885-193.804-74.885-267.729 0l-535.457 542.178c-49.283 50.051-49.283 130.888 0 180.811 49.219 49.923 129.224 49.923 178.507 0l535.393-542.37c24.706-24.898 24.706-65.412 0-90.374-24.642-24.962-64.58-24.962-89.158 0l-490.847 497.183-44.675-45.251 490.783-497.055c49.347-49.987 129.288-49.987 178.507 0 49.347 49.859 49.347 130.888 0 180.747l-535.393 542.37c-73.925 74.757-193.74 74.757-267.729 0-73.925-74.885-73.925-196.364 0-271.249l535.457-542.242c98.566-99.91 258.384-99.91 356.95-0.064s98.566 261.712 0 361.559z" />
<glyph unicode="&#xe90b;" glyph-name="lj_reverse" horiz-adv-x="836" d="M-0.2-64l377.2 109.6 438.6 585c48.6 70 6.4 187.8-96 265.2-56 42.6-118.8 64.2-172.8 64.2-44.6 0-83.2-14.8-107.4-44.6l-438.8-584.8-0.8-394.6zM389.6 718c7 0.4 13.4 0.4 18.8 0.2 21.4-1.4 43.8-6.4 66.6-15.4 17.8-7 35.2-16 51.8-26.8l-200.6-267.8c-34.2-45.6-84.2-75.2-140.6-83.2-29.4-4-58.6-2-86.4 5.6l290.4 387.4zM747.2 670c-18.2 45.2-53.2 90.6-101.4 127.2-48.2 36.4-101.2 57.4-149.4 62.8l4 5.4c8 10 24.8 15.6 46.4 15.6 18 0 38.2-4 58.8-11.4 23-8.4 45.4-20.8 66.6-36.8 75.2-57 96.8-131.2 78.8-157.2l-3.8-5.6zM714.2 626.6l-41-54.8c-18.2 45.2-53.2 90.6-101.4 127.2-48.2 36.4-101.2 57.6-149.4 62.8l41.2 55c7 0.4 13.4 0.4 18.8 0 21.2-1.2 43.6-6.4 66.4-15.4 24.4-9.6 47.8-22.8 70-39.6s41.4-36 57.2-56.8c14.8-19.6 26-39.8 33-60 1.8-5.2 3.6-11.4 5.2-18.4zM362 381.8l200.4 267.4c14.8-13.2 28.2-27.4 39.8-42.8 14.8-19.6 25.8-39.8 33-60 1.8-5.2 3.6-11.4 5.2-18.4l-290.4-387.4c-15 24.6-25 52.4-29.2 82-7.8 56.8 6.6 113.2 41.2 159.2zM127.2 105.8c-14.6 11-31.6 16.2-48.2 16l0.4 168.4c67.4-21.2 140.4-13.4 201.8 20.8-15.8-68.6-3-141.6 35.6-200.8l-161-46.8c-4.4 16.4-14 31.4-28.6 42.4z" />
<glyph unicode="&#xe90c;" glyph-name="lj" horiz-adv-x="836" d="M835 330.6l-438.8 584.8c-24.2 29.8-62.8 44.6-107.4 44.6-54 0-116.8-21.6-172.8-64.2-102.4-77.4-144.6-195.2-96-265.2l438.8-585 377-109.6-0.8 394.6zM446 718l290.4-387.4c-27.8-7.6-57-9.6-86.4-5.6-56.4 8-106.4 37.6-140.6 83.2l-200.6 267.8c16.6 10.8 34 19.8 51.8 26.8 22.8 9 45.2 14 66.6 15.4 5.4 0.2 11.8 0.2 18.8-0.2zM84.6 675.6c-18 26 3.6 100.2 78.8 157.2 21.2 16 43.6 28.4 66.6 36.8 20.6 7.4 40.8 11.4 58.8 11.4 21.6 0 38.4-5.6 46.4-15.6l4-5.4c-48.2-5.4-101.2-26.4-149.4-62.8-48.2-36.6-83.2-82-101.4-127.2l-3.8 5.6zM121.4 626.6c1.6 7 3.4 13.2 5.2 18.4 7 20.2 18.2 40.4 33 60 15.8 20.8 35 40 57.2 56.8s45.6 30 70 39.6c22.8 9 45.2 14.2 66.4 15.4 5.4 0.4 11.8 0.4 18.8 0l41.2-55c-48.2-5.2-101.2-26.4-149.4-62.8-48.2-36.6-83.2-82-101.4-127.2l-41 54.8zM514.8 222.6c-4.2-29.6-14.2-57.4-29.2-82l-290.4 387.4c1.6 7 3.4 13.2 5.2 18.4 7.2 20.2 18.2 40.4 33 60 11.6 15.4 25 29.6 39.8 42.8l200.4-267.4c34.6-46 49-102.4 41.2-159.2zM708.4 105.8c-14.6-11-24.2-26-28.6-42.4l-161 46.8c38.6 59.2 51.4 132.2 35.6 200.8 61.4-34.2 134.4-42 201.8-20.8l0.4-168.4c-16.6 0.2-33.6-5-48.2-16z" />
<glyph unicode="&#xe90d;" glyph-name="gp" horiz-adv-x="1138" d="M1115.429 544h-171.429v171.429c0 13.714-11.429 22.857-22.857 22.857h-48c-13.714 0-22.857-11.429-22.857-22.857v-171.429h-171.429c-13.714 0-22.857-11.429-22.857-22.857v-48c0-13.714 11.429-22.857 22.857-22.857h171.429v-171.429c0-13.714 11.429-22.857 22.857-22.857h48c13.714 0 22.857 11.429 22.857 22.857v171.429h171.429c13.714 0 22.857 11.429 22.857 22.857v48c0 13.714-9.143 22.857-22.857 22.857zM537.143 393.143c-36.571 25.143-68.571 64-68.571 75.429 0 20.571 2.286 32 48 68.571 61.714 48 93.714 109.714 93.714 176 0 59.429-18.286 114.286-50.286 150.857h25.143c4.571 0 9.143 2.286 13.714 4.571l68.571 48c9.143 6.857 11.429 16 9.143 27.429-2.286 9.143-11.429 16-22.857 16h-301.714c-32 0-66.286-6.857-100.571-18.286-109.714-38.857-187.429-132.571-187.429-228.571 0-137.143 105.143-240 246.857-242.286-2.286-11.429-4.571-20.571-4.571-32 0-20.571 4.571-41.143 16-59.429h-4.571c-134.857 0-256-66.286-301.714-164.571-9.143-25.143-16-50.286-16-77.714 0-25.143 6.857-48 18.286-70.857 29.714-52.571 91.429-91.429 176-114.286 43.429-11.429 89.143-16 139.429-16 43.429 0 84.571 4.571 123.429 16 118.857 34.286 196.571 123.429 196.571 224s-32 157.714-116.571 217.143zM155.429 171.429c0 70.857 89.143 132.571 192 132.571h2.286c22.857 0 43.429-4.571 64-9.143l20.571-13.714c48-32 80-54.857 86.857-89.143 2.286-9.143 2.286-18.286 2.286-25.143 0-89.143-66.286-132.571-196.571-132.571-93.714-2.286-171.429 59.429-171.429 137.143zM249.143 841.143c16 18.286 36.571 27.429 61.714 27.429h2.286c66.286-2.286 130.286-75.429 141.714-166.857 6.857-50.286-4.571-98.286-29.714-125.714-16-18.286-36.571-27.429-61.714-27.429-66.286 2.286-130.286 80-141.714 169.143-6.857 50.286 4.571 96 27.429 123.429z" />
<glyph unicode="&#xe90e;" glyph-name="fb" horiz-adv-x="475" d="M474.899 629.267h-161.126v106.004c0 40.282 25.441 48.762 44.522 48.762s114.484 0 114.484 0v175.967h-156.886c-175.967 0-214.128-131.445-214.128-214.128v-116.605h-101.764v-180.207h101.764c0-231.089 0-510.94 0-510.94h212.008c0 0 0 281.971 0 510.94h144.166l16.961 180.207z" />
<glyph unicode="&#xe90f;" glyph-name="tw" horiz-adv-x="1262" d="M1261.637 839.021c-45.367-21.603-95.055-34.565-149.063-41.046 54.008 32.405 95.055 82.093 114.498 142.582-51.848-30.245-105.857-51.848-164.186-62.65-47.527 49.688-114.498 82.093-190.11 82.093-142.582 0-259.241-116.658-259.241-259.241 0-19.443 2.16-41.046 6.481-58.329-213.873 10.802-403.983 114.498-531.443 270.042-23.764-38.886-36.726-82.093-36.726-129.62 0-90.734 45.367-168.506 114.498-216.034-41.046 2.16-82.093 12.962-116.658 32.405v-2.16c0-125.3 88.574-228.996 207.392-252.759-21.603-6.481-45.367-8.641-69.131-8.641-17.283 0-32.405 2.16-47.527 4.321 32.405-101.536 127.46-177.148 241.958-179.308-88.574-69.131-200.911-110.177-321.89-110.177-21.603 0-41.046 2.16-62.65 4.321 114.498-73.451 250.599-116.658 397.502-116.658 475.274 0 736.675 395.342 736.675 736.675v32.405c49.688 34.565 95.055 79.932 129.62 131.781z" />
<glyph unicode="&#xe910;" glyph-name="yt" horiz-adv-x="1050" d="M855.467 473.6h-663.467c-104.533 0-192-85.333-192-192v-153.6c0-104.533 85.333-192 192-192h663.467c104.533 0 192 85.333 192 192v153.6c-2.133 104.533-87.467 192-192 192zM330.667 352h-61.867v-307.2h-59.733v307.2h-61.867v53.333h183.467v-53.333zM505.6 46.933h-53.333v29.867c-10.667-10.667-19.2-19.2-29.867-23.467-10.667-6.4-21.333-8.533-29.867-8.533-12.8 0-21.333 4.267-27.733 12.8s-8.533 19.2-8.533 36.267v217.6h53.333v-202.667c0-6.4 2.133-10.667 4.267-12.8s6.4-4.267 10.667-4.267 8.533 2.133 14.933 6.4c6.4 4.267 10.667 8.533 17.067 14.933v200.533h53.333v-266.667zM697.6 100.267c0-19.2-4.267-34.133-12.8-42.667-8.533-10.667-21.333-14.933-36.267-14.933-10.667 0-19.2 2.133-27.733 6.4s-14.933 10.667-23.467 17.067v-21.333h-53.333v360.533h53.333v-115.2c6.4 8.533 14.933 14.933 23.467 19.2s17.067 6.4 23.467 6.4c17.067 0 29.867-6.4 38.4-17.067s12.8-27.733 12.8-49.067l2.133-149.333zM881.067 172.8h-100.267v-49.067c0-14.933 2.133-23.467 4.267-29.867 4.267-6.4 8.533-8.533 17.067-8.533s14.933 2.133 19.2 6.4c4.267 4.267 4.267 14.933 4.267 29.867v12.8h55.467v-12.8c0-27.733-6.4-46.933-19.2-61.867-12.8-12.8-32-21.333-59.733-21.333-23.467 0-42.667 6.4-55.467 21.333s-21.333 34.133-21.333 59.733v119.467c0 23.467 8.533 42.667 23.467 55.467 14.933 14.933 34.133 21.333 57.6 21.333s42.667-6.4 55.467-19.2c12.8-12.8 19.2-32 19.2-57.6v-66.133zM802.133 270.933c-8.533 0-14.933-2.133-17.067-6.4-4.267-4.267-6.4-12.8-6.4-23.467v-27.733h46.933v27.733c0 10.667-2.133 19.2-6.4 23.467-2.133 4.267-8.533 6.4-17.067 6.4zM620.8 273.067c-4.267 0-8.533 0-10.667-2.133-4.267-2.133-6.4-4.267-10.667-8.533v-164.267c4.267-4.267 8.533-8.533 12.8-8.533 4.267-2.133 8.533-2.133 12.8-2.133 6.4 0 10.667 2.133 14.933 6.4 2.133 4.267 4.267 10.667 4.267 19.2v136.533c0 8.533-2.133 14.933-6.4 21.333-4.267-2.133-10.667 2.133-17.067 2.133zM277.333 565.333h68.267v164.267l76.8 230.4h-68.267l-40.533-157.867h-4.267l-42.667 157.867h-68.267l78.933-238.933zM514.133 556.8c27.733 0 49.067 6.4 64 21.333s23.467 34.133 23.467 59.733v149.333c0 21.333-8.533 40.533-23.467 55.467s-36.267 21.333-59.733 21.333c-27.733 0-49.067-6.4-64-19.2-17.067-12.8-23.467-32-23.467-53.333v-151.467c0-25.6 8.533-44.8 23.467-59.733 12.8-14.933 34.133-23.467 59.733-23.467zM488.533 791.467c0 6.4 2.133 10.667 6.4 14.933s10.667 6.4 17.067 6.4c8.533 0 14.933-2.133 19.2-6.4s6.4-8.533 6.4-14.933v-160c0-8.533-2.133-14.933-6.4-19.2s-10.667-6.4-19.2-6.4-14.933 2.133-19.2 6.4c-4.267 4.267-6.4 10.667-6.4 19.2l2.133 160zM691.2 561.067c10.667 0 23.467 2.133 34.133 8.533 12.8 6.4 23.467 14.933 34.133 27.733v-32h59.733v290.133h-59.733v-221.867c-6.4-6.4-10.667-10.667-19.2-14.933-6.4-4.267-12.8-6.4-17.067-6.4-6.4 0-10.667 2.133-12.8 4.267s-4.267 8.533-4.267 14.933v224h-59.733v-243.2c0-17.067 4.267-29.867 10.667-38.4 10.667-8.533 19.2-12.8 34.133-12.8z" />
<glyph unicode="&#xe911;" glyph-name="vk" horiz-adv-x="1755" d="M1462.857 374.857c14.629 29.257 80.457 124.343 124.343 197.486 138.971 204.8 168.229 248.686 168.229 277.943 0 21.943-14.629 36.571-36.571 36.571h-329.143c-14.629 0-29.257-14.629-36.571-29.257-21.943-102.4-256-387.657-292.571-409.6-14.629 0-36.571 36.571-36.571 109.714v307.2c7.314 21.943 0 51.2-14.629 65.829-29.257 29.257-65.829 29.257-168.229 29.257-190.171 0-256-58.514-256-109.714 0-21.943 14.629-36.571 29.257-36.571 0 0 43.886-29.257 43.886-182.857 0-58.514 0-124.343-7.314-182.857-95.086 14.629-226.743 248.686-285.257 416.914-7.314 14.629-21.943 21.943-36.571 21.943h-292.571c-21.943 0-36.571-14.629-36.571-36.571v-7.314c43.886-219.429 504.686-906.971 804.571-906.971h146.286c80.457 0 80.457 80.457 87.771 138.971s7.314 80.457 21.943 80.457c43.886 0 138.971-80.457 197.486-131.657s102.4-87.771 131.657-87.771h182.857c95.086 0 182.857 0 182.857 73.143 0 29.257-21.943 58.514-160.914 219.429-51.2 51.2-109.714 117.029-131.657 146.286z" />
<glyph unicode="&#xe912;" glyph-name="eye" horiz-adv-x="1459" d="M729.358 119.547c-173.887 0-318.792 144.906-318.792 328.453 0 178.717 144.906 328.453 318.792 328.453s318.792-144.906 318.792-328.453c0-178.717-144.906-328.453-318.792-328.453zM729.358 679.849c-120.755 0-222.189-101.434-222.189-231.849 0-125.585 101.434-231.849 222.189-231.849s222.189 101.434 222.189 231.849c0 130.415-101.434 231.849-222.189 231.849zM729.358 283.774c-86.943 0-159.396 72.453-159.396 164.226s72.453 164.226 159.396 164.226 159.396-72.453 159.396-164.226c0-86.943-72.453-164.226-159.396-164.226zM729.358 515.623c-33.811 0-62.792-28.981-62.792-67.623s28.981-67.623 62.792-67.623c33.811 0 62.792 28.981 62.792 67.623s-28.981 67.623-62.792 67.623zM729.358-64c-299.472 0-574.792 188.377-724.528 487.849-4.83 14.491-4.83 28.981 0 43.472 149.736 304.302 425.057 492.679 724.528 492.679s574.792-188.377 724.528-487.849c4.83-14.491 4.83-28.981 0-43.472-149.736-304.302-425.057-492.679-724.528-492.679zM101.434 448c135.245-256 371.925-415.396 627.925-415.396s492.679 159.396 627.925 415.396c-135.245 256-376.755 415.396-627.925 415.396s-492.679-159.396-627.925-415.396z" />
<glyph unicode="&#xe913;" glyph-name="comment" horiz-adv-x="1180" d="M905.993 617.398h-631.911c-22.84 0-38.067 15.227-38.067 38.067s15.227 38.067 38.067 38.067h635.717c22.84 0 38.067-15.227 38.067-38.067s-19.033-38.067-41.874-38.067zM905.993 427.063h-631.911c-22.84 0-38.067 15.227-38.067 38.067s15.227 38.067 38.067 38.067h635.717c22.84 0 38.067-15.227 38.067-38.067s-19.033-38.067-41.874-38.067zM647.138-64c-3.807 0-11.42 0-15.227 3.807-15.227 7.613-22.84 19.033-22.84 34.26v186.528h-571.004c-22.84 0-38.067 15.227-38.067 38.067v723.271c0 22.84 15.227 38.067 38.067 38.067h1103.941c22.84 0 38.067-15.227 38.067-38.067v-723.271c0-22.84-15.227-38.067-38.067-38.067h-232.208l-239.822-216.981c-3.807-3.807-15.227-7.613-22.84-7.613zM76.134 236.729h571.004c22.84 0 38.067-15.227 38.067-38.067v-140.848l186.528 167.494c7.613 7.613 15.227 11.42 26.647 11.42h205.561v647.138h-1027.807v-647.138z" />
<glyph unicode="&#xe914;" glyph-name="star" horiz-adv-x="1084" d="M245.52-64c-11.977 0-23.953 5.988-35.93 11.977-23.953 17.965-29.942 41.918-23.953 65.871l89.825 299.415-251.509 191.626c-17.965 17.965-29.942 41.918-17.965 65.871 5.988 23.953 29.942 41.918 53.895 41.918l317.38 5.988 107.789 299.415c5.988 23.953 29.942 41.918 53.895 41.918s47.906-17.965 59.883-41.918l107.789-299.415 317.38-5.988c23.953 0 47.906-17.965 53.895-41.918s0-53.895-23.953-65.871l-257.497-191.626 89.825-299.415c5.988-23.953 0-53.895-23.953-65.871-23.953-17.965-47.906-17.965-71.86 0l-263.485 179.649-263.485-179.649c5.988-11.977-5.988-11.977-17.965-11.977z" />
<glyph unicode="&#xe915;" glyph-name="star_empty" horiz-adv-x="1084" d="M245.52-64c-11.977 0-23.953 5.988-35.93 11.977-23.953 17.965-29.942 41.918-23.953 65.871l89.825 299.415-251.509 191.626c-17.965 17.965-29.942 41.918-17.965 65.871 5.988 23.953 29.942 41.918 53.895 41.918l317.38 5.988 107.789 299.415c5.988 23.953 29.942 41.918 53.895 41.918s47.906-17.965 59.883-41.918l107.789-299.415 317.38-5.988c23.953 0 47.906-17.965 53.895-41.918s0-53.895-23.953-65.871l-257.497-191.626 89.825-299.415c5.988-23.953 0-53.895-23.953-65.871-23.953-17.965-47.906-17.965-71.86 0l-263.485 179.649-263.485-179.649c5.988-11.977-5.988-11.977-17.965-11.977zM538.947 193.497c5.988 0 11.977 0 17.965-5.988l281.45-191.626-95.813 323.368c-5.988 11.977 0 23.953 11.977 29.942l269.474 203.602-341.333 5.988c-11.977 0-23.953 5.988-29.942 17.965l-107.789 323.368-113.778-317.38c-5.988-11.977-17.965-23.953-29.942-23.953l-341.333-5.988 269.474-203.602c11.977-5.988 11.977-17.965 11.977-29.942l-95.813-323.368 281.45 191.626s5.988 5.988 11.977 5.988z" />
<glyph unicode="&#xe916;" glyph-name="dollar" horiz-adv-x="586" d="M158.72 614.633c0 53.993 78.662 62.836 147.084 62.836 64.233 0 152.204-30.255 226.211-68.422l14.429 148.48c-36.771 20.945-121.949 46.080-208.989 51.2l20.945 151.738h-140.567l20.945-151.273c-181.527-17.222-240.64-121.949-240.64-209.92 0-222.022 413.789-174.545 413.789-311.389 0-51.2-48.407-69.818-134.051-69.818-115.433 0-202.473 40.495-247.156 82.851l-22.342-166.633c41.891-25.135 127.535-47.476 229.935-52.596l-20.945-145.687h141.033l-20.945 147.084c212.713 18.618 250.88 131.258 250.88 206.196 0 263.913-429.615 198.284-429.615 325.353z" />
<glyph unicode="&#xe917;" glyph-name="play" horiz-adv-x="853" d="M824.533 509.6l-742.4 441.867c-9.067 5.333-18.4 8.533-29.067 8.533-29.067 0-52.8-24-52.8-53.333h-0.267v-917.333h0.267c0-29.333 23.733-53.333 52.8-53.333 10.933 0 20 3.733 29.867 9.067l741.6 441.333c17.6 14.667 28.8 36.8 28.8 61.6s-11.2 46.667-28.8 61.6z" />
<glyph unicode="&#xe918;" glyph-name="arr_down" horiz-adv-x="1869" d="M0 832c0 25.6 12.8 64 38.4 89.6 51.2 51.2 128 51.2 179.2 0l716.8-691.2 729.6 691.2c51.2 51.2 128 51.2 179.2 0s51.2-128 0-179.2l-819.2-780.8c-51.2-51.2-128-51.2-179.2 0l-806.4 768c-25.6 38.4-38.4 64-38.4 102.4z" />
<glyph unicode="&#xe919;" glyph-name="arr_left" horiz-adv-x="546" d="M477.867 960c13.653 0 34.133-6.827 47.787-20.48 27.307-27.307 27.307-68.267 0-95.573l-361.813-382.293 368.64-389.12c27.307-27.307 27.307-68.267 0-95.573s-68.267-27.307-95.573 0l-416.427 436.907c-27.307 27.307-27.307 68.267 0 95.573l409.6 430.080c13.653 13.653 34.133 20.48 47.787 20.48z" />
<glyph unicode="&#xe91a;" glyph-name="arr_right" horiz-adv-x="546" d="M68.267-43.52c-13.653 0-34.133 6.827-47.787 20.48-27.307 27.307-27.307 68.267 0 95.573l368.64 382.293-368.64 389.12c-27.307 27.307-27.307 68.267 0 95.573s68.267 27.307 95.573 0l409.6-430.080c27.307-27.307 27.307-68.267 0-95.573l-409.6-430.080c-13.653-20.48-27.307-27.307-47.787-27.307z" />
<glyph unicode="&#xe91b;" glyph-name="arr_up" horiz-adv-x="1869" d="M1881.6 64c0-25.6-12.8-64-38.4-89.6-51.2-51.2-128-51.2-179.2 0l-729.6 678.4-716.8-691.2c-51.2-51.2-128-51.2-179.2 0s-51.2 128 0 179.2l806.4 768c51.2 51.2 128 51.2 179.2 0l806.4-768c38.4-12.8 51.2-51.2 51.2-76.8z" />
<glyph unicode="&#xe91c;" glyph-name="download2" horiz-adv-x="1078" d="M524.575 392.309c-10.779 0-17.965 7.186-17.965 17.965v531.761c0 10.779 7.186 17.965 17.965 17.965s17.965-7.186 17.965-17.965v-531.761c0-10.779-7.186-17.965-17.965-17.965zM524.575 392.309c-3.593 0-10.779 3.593-14.372 3.593l-147.312 147.312c-7.186 7.186-7.186 17.965 0 25.151s17.965 7.186 25.151 0l136.533-136.533 136.533 136.533c7.186 7.186 17.965 7.186 25.151 0s7.186-17.965 0-25.151l-147.312-147.312c-7.186 0-10.779-3.593-14.372-3.593zM700.632-64h-323.368c-21.558 0-39.523 14.372-39.523 35.93l21.558 122.161c0 10.779 10.779 17.965 21.558 14.372 10.779 0 17.965-10.779 14.372-21.558l-21.558-114.975h330.554l-21.558 114.975c0 10.779 3.593 17.965 14.372 21.558 10.779 0 17.965-3.593 21.558-14.372l21.558-118.568c0-25.151-17.965-39.523-39.523-39.523zM988.070 151.579h-898.246c-50.302 0-89.825 39.523-89.825 89.825v535.354c0 50.302 39.523 89.825 89.825 89.825h319.775c10.779 0 17.965-7.186 17.965-17.965s-7.186-17.965-17.965-17.965h-319.775c-28.744 0-53.895-25.151-53.895-53.895v-535.354c0-28.744 25.151-53.895 53.895-53.895h894.653c32.337 0 53.895 25.151 53.895 53.895v535.354c0 28.744-25.151 53.895-53.895 53.895h-355.705c-10.779 0-17.965 7.186-17.965 17.965s7.186 17.965 17.965 17.965h355.705c50.302 0 89.825-39.523 89.825-89.825v-535.354c3.593-50.302-35.93-89.825-86.232-89.825zM776.084-64h-474.274c-10.779 0-17.965 7.186-17.965 17.965s7.186 17.965 17.965 17.965h474.274c10.779 0 17.965-7.186 17.965-17.965s-7.186-17.965-17.965-17.965z" />
<glyph unicode="&#xe91d;" glyph-name="close" horiz-adv-x="1044" d="M27.307-64l996.693 996.693zM0.819-40.38l994.372 994.441 48.265-48.265-994.304-994.372zM1024-43.52l-996.693 996.693zM3.413 930.099l48.265 48.333 994.372-994.441-48.265-48.265z" />
<glyph unicode="&#xe91e;" glyph-name="telegram" horiz-adv-x="1151" d="M1136.253 948.775c-16.214 13.72-42.407 14.967-87.308 1.247-31.181-9.978-308.073-114.748-552.536-215.776-219.518-91.050-397.876-170.875-419.079-180.853-23.698-7.484-74.836-29.934-77.33-64.857-1.247-22.451 17.462-42.407 53.632-58.621 38.665-19.956 209.54-77.33 245.71-88.555 12.473-42.407 86.061-290.611 89.803-305.579 4.989-22.451 19.956-34.923 27.44-39.912 1.247-1.247 3.742-3.742 6.236-4.989 3.742-2.495 8.731-3.742 14.967-3.742 8.731 0 18.709 3.742 27.44 9.978 46.149 37.418 125.973 120.984 148.424 144.682 98.533-77.33 205.798-163.391 215.776-173.369l1.247-1.247c23.698-19.956 48.643-31.181 71.094-31.181 7.484 0 14.967 1.247 22.451 3.742 26.192 8.731 44.901 33.676 51.138 67.352 0 1.247 1.247 6.236 3.742 14.967 42.407 184.594 76.083 346.738 103.523 482.689 26.192 133.457 47.396 264.419 59.868 334.266 2.495 17.462 4.989 31.181 6.236 39.912 3.742 24.945 6.236 53.632-12.473 69.847zM325.535 345.101l594.943 394.134c1.247 1.247 3.742 2.495 4.989 3.742 1.247 0 1.247 1.247 2.495 1.247s1.247 0 2.495 1.247c-1.247-1.247-2.495-4.989-4.989-7.484l-150.918-140.94c-104.77-96.039-241.968-222.012-333.018-304.331v-1.247l-1.247-1.247s0-1.247-1.247-1.247c0-1.247 0-1.247-1.247-2.495v-2.495c-6.236-69.847-17.462-189.583-22.451-243.216v1.247c-4.989 14.967-74.836 253.194-89.803 303.084z" />
<glyph unicode="&#xe91f;" glyph-name="question" horiz-adv-x="635" d="M291.754-64c-22.883 0-45.765 17.162-45.765 45.765v28.603c0 22.883 17.162 45.765 45.765 45.765s45.765-17.162 45.765-45.765v-28.603c-5.721-28.603-22.883-45.765-45.765-45.765zM291.754 147.665c-22.883 0-45.765 17.162-45.765 45.765v154.458c0 40.045 28.603 80.089 68.648 97.251 154.458 57.207 228.827 125.855 228.827 217.385 0 120.134-114.413 211.665-251.709 211.665-91.531 0-171.62-40.045-217.385-108.693-11.441-17.162-40.045-22.883-57.207-11.441s-22.883 34.324-11.441 57.207c62.927 91.531 171.62 148.737 291.754 148.737 183.061 0 337.52-137.296 337.52-297.475 0-131.575-91.531-228.827-286.034-297.475-5.721 0-11.441-5.721-11.441-11.441v-154.458c-5.721-34.324-22.883-51.486-45.765-51.486z" />
<glyph unicode="&#xe920;" glyph-name="doc" horiz-adv-x="755" d="M728.551 741.77h-167.869c-13.43 0-26.859 10.072-26.859 26.859v167.869c3.357 13.43 13.43 23.502 26.859 23.502s26.859-10.072 26.859-26.859v-141.010h144.367c13.43 0 26.859-10.072 26.859-26.859s-16.787-23.502-30.216-23.502zM694.977-64h-637.902c-33.574 0-57.075 26.859-57.075 60.433v906.492c0 30.216 26.859 57.075 57.075 57.075h503.607c20.144 0 30.216-10.072 36.931-16.787l141.010-137.652c6.715-6.715 16.787-20.144 16.787-40.289v-772.197c0-30.216-26.859-57.075-60.433-57.075zM560.682 909.639h-500.249c-3.357 0-6.715-3.357-6.715-10.072v-906.492c0-3.357 3.357-10.072 6.715-10.072h637.902c3.357 0 6.715 3.357 6.715 10.072v772.197l-144.367 144.367zM587.541 439.607h-419.672c-13.43 0-26.859 10.072-26.859 26.859s10.072 23.502 26.859 23.502h423.030c13.43 0 26.859-10.072 26.859-26.859s-16.787-23.502-30.216-23.502zM587.541 305.311h-419.672c-13.43 0-26.859 10.072-26.859 26.859s10.072 23.502 26.859 23.502h423.030c13.43 0 26.859-10.072 26.859-26.859s-16.787-23.502-30.216-23.502zM587.541 171.016h-419.672c-13.43 0-26.859 10.072-26.859 26.859s10.072 23.502 26.859 23.502h423.030c13.43 0 26.859-10.072 26.859-26.859s-16.787-23.502-30.216-23.502zM399.528 573.902h-231.659c-13.43 0-26.859 10.072-26.859 26.859s10.072 23.502 26.859 23.502h235.016c13.43 0 26.859-10.072 26.859-26.859s-16.787-23.502-30.216-23.502z" />
<glyph unicode="&#xe921;" glyph-name="attention" horiz-adv-x="187" d="M180.282 960l-14.423-649.014h-144.225l-14.423 649.014zM93.746-64c-57.69 0-93.746 36.056-93.746 86.535 0 57.69 36.056 86.535 93.746 86.535s93.746-28.845 93.746-86.535c0-50.479-36.056-86.535-93.746-86.535z" />
<glyph unicode="&#xe922;" glyph-name="inst" d="M887.467 960h-768c-64.853 0-119.467-54.613-119.467-119.467v-785.067c0-64.853 54.613-119.467 119.467-119.467h785.067c64.853 3.413 119.467 54.613 119.467 119.467v785.067c0 64.853-71.68 116.053-136.533 119.467zM512 635.733c102.4 0 187.733-85.333 187.733-187.733s-85.333-187.733-187.733-187.733-187.733 85.333-187.733 187.733 85.333 187.733 187.733 187.733zM887.467 140.8c0-37.547-30.72-68.267-68.267-68.267h-614.4c-37.547 0-68.267 30.72-68.267 68.267v392.533h81.92c-6.827-27.307-13.653-54.613-13.653-85.333 0-170.667 136.533-307.2 307.2-307.2s307.2 136.533 307.2 307.2c0 30.72-3.413 58.027-13.653 85.333h81.92v-392.533zM887.467 789.333v-102.4c0-17.067-13.653-34.133-34.133-34.133h-102.4c-17.067 0-34.133 13.653-34.133 34.133v102.4c0 20.48 13.653 34.133 34.133 34.133h102.4c20.48 0 34.133-13.653 34.133-34.133z" />
<glyph unicode="&#xe923;" glyph-name="doc_list" horiz-adv-x="751" d="M733.867 755.2h-170.667c-10.24 0-17.067 6.827-17.067 17.067v170.667c0 10.24 6.827 17.067 17.067 17.067s17.067-6.827 17.067-17.067v-153.6h153.6c10.24 0 17.067-6.827 17.067-17.067s-6.827-17.067-17.067-17.067zM699.733-64h-648.533c-27.307 0-51.2 23.893-51.2 51.2v921.6c0 27.307 23.893 51.2 51.2 51.2h512c17.067 0 23.893-6.827 30.72-13.653l139.947-139.947c6.827-6.827 17.067-17.067 17.067-34.133v-785.067c0-27.307-23.893-51.2-51.2-51.2zM51.2 925.867c-10.24 0-17.067-6.827-17.067-17.067v-921.6c0-10.24 6.827-17.067 17.067-17.067h648.533c10.24 0 17.067 6.827 17.067 17.067v785.067c0 3.413 0 3.413-3.413 10.24l-139.947 139.947-10.24 3.413h-512zM597.333 618.667h-242.347c-10.24 0-17.067 6.827-17.067 17.067s10.24 17.067 17.067 17.067h242.347c10.24 0 17.067-6.827 17.067-17.067s-6.827-17.067-17.067-17.067zM256 546.987h-102.4c-10.24 0-17.067 6.827-17.067 17.067v102.4c0 10.24 6.827 17.067 17.067 17.067h102.4c10.24 0 17.067-6.827 17.067-17.067v-102.4c0-6.827-6.827-17.067-17.067-17.067zM170.667 581.12h68.267v68.267h-68.267v-68.267zM597.333 413.867h-242.347c-10.24 0-17.067 6.827-17.067 17.067s6.827 17.067 17.067 17.067h242.347c10.24 0 17.067-6.827 17.067-17.067s-6.827-17.067-17.067-17.067zM256 342.187h-102.4c-10.24 0-17.067 6.827-17.067 17.067v102.4c0 10.24 6.827 17.067 17.067 17.067h102.4c10.24 0 17.067-6.827 17.067-17.067v-102.4c0-6.827-6.827-17.067-17.067-17.067zM170.667 376.32h68.267v68.267h-68.267v-68.267zM597.333 209.067h-242.347c-10.24 0-17.067 6.827-17.067 17.067s6.827 17.067 17.067 17.067h242.347c10.24 0 17.067-6.827 17.067-17.067s-6.827-17.067-17.067-17.067zM256 137.387h-102.4c-10.24 0-17.067 6.827-17.067 17.067v102.4c0 10.24 6.827 17.067 17.067 17.067h102.4c10.24 0 17.067-6.827 17.067-17.067v-102.4c0-6.827-6.827-17.067-17.067-17.067zM170.667 171.52h68.267v68.267h-68.267v-68.267z" />
<glyph unicode="&#xe924;" glyph-name="download" horiz-adv-x="1059" d="M512 112.552c-10.593 0-17.655 7.062-17.655 17.655v812.138c0 10.593 7.062 17.655 17.655 17.655s17.655-7.062 17.655-17.655v-812.138c0-10.593-7.062-17.655-17.655-17.655zM512 112.552c-3.531 0-10.593 0-14.124 3.531l-197.738 194.207c-7.062 7.062-7.062 17.655 0 24.717s17.655 7.062 24.717 0l183.614-183.614 183.614 183.614c7.062 7.062 17.655 7.062 24.717 0s7.062-17.655 0-24.717l-197.738-194.207c3.531-3.531-3.531-3.531-7.062-3.531zM1041.655-64h-1024c-10.593 0-17.655 10.593-17.655 17.655v247.172c0 10.593 7.062 17.655 17.655 17.655s17.655-7.062 17.655-17.655v-229.517h988.69v229.517c0 10.593 7.062 17.655 17.655 17.655s17.655-7.062 17.655-17.655v-247.172c0-7.062-7.062-17.655-17.655-17.655z" />
<glyph unicode="&#xe925;" glyph-name="eye_thin" horiz-adv-x="1480" d="M740.119 128.634c-172.356 0-309.228 141.941-309.228 319.366s136.871 319.366 309.228 319.366c172.356 0 309.228-141.941 309.228-319.366s-136.871-319.366-309.228-319.366zM740.119 716.673c-141.941 0-258.535-121.663-258.535-268.673s116.594-268.673 258.535-268.673 258.535 121.663 258.535 268.673-116.594 268.673-258.535 268.673zM740.119 300.99c-76.040 0-141.941 65.901-141.941 147.010s65.901 147.010 141.941 147.010 141.941-65.901 141.941-147.010c0-81.109-60.832-147.010-141.941-147.010zM740.119 544.317c-50.693 0-91.248-40.554-91.248-96.317 0-50.693 40.554-96.317 91.248-96.317s91.248 40.554 91.248 96.317c0 55.762-40.554 96.317-91.248 96.317zM740.119-64c-304.158 0-582.97 192.634-735.050 501.861-5.069 5.069-5.069 15.208 0 20.277 152.079 309.228 430.891 501.861 735.050 501.861s582.97-192.634 735.050-501.861c5.069-5.069 5.069-15.208 0-20.277-152.079-309.228-430.891-501.861-735.050-501.861zM55.762 448c147.010-283.881 405.545-461.307 684.356-461.307s542.416 177.426 684.356 461.307c-141.941 283.881-405.545 461.307-684.356 461.307s-542.416-177.426-684.356-461.307z" />
<glyph unicode="&#xe926;" glyph-name="portfolio" d="M921.6-46.933h-819.2c-58.027 0-102.4 44.373-102.4 102.4v546.133c0 58.027 44.373 102.4 102.4 102.4h819.2c58.027 0 102.4-44.373 102.4-102.4v-546.133c0-58.027-44.373-102.4-102.4-102.4zM102.4 669.867c-37.547 0-68.267-30.72-68.267-68.267v-546.133c0-37.547 30.72-68.267 68.267-68.267h819.2c37.547 0 68.267 30.72 68.267 68.267v546.133c0 37.547-30.72 68.267-68.267 68.267h-819.2zM426.667 430.933h-409.6c-10.24 0-17.067 6.827-17.067 17.067s6.827 17.067 17.067 17.067h409.6c10.24 0 17.067-6.827 17.067-17.067s-6.827-17.067-17.067-17.067zM1006.933 430.933h-409.6c-10.24 0-17.067 6.827-17.067 17.067s6.827 17.067 17.067 17.067h409.6c10.24 0 17.067-6.827 17.067-17.067s-6.827-17.067-17.067-17.067zM597.333 362.667h-170.667c-10.24 0-17.067 6.827-17.067 17.067v136.533c0 10.24 6.827 17.067 17.067 17.067h170.667c10.24 0 17.067-6.827 17.067-17.067v-136.533c0-10.24-6.827-17.067-17.067-17.067zM443.733 396.8h136.533v102.4h-136.533v-102.4zM699.733 772.267c-10.24 0-17.067 6.827-17.067 17.067 0 64.853-54.613 119.467-119.467 119.467h-102.4c-64.853 0-119.467-54.613-119.467-119.467 0-10.24-6.827-17.067-17.067-17.067s-17.067 6.827-17.067 17.067c0 85.333 68.267 153.6 153.6 153.6h102.4c85.333 0 153.6-68.267 153.6-153.6 0-10.24-6.827-17.067-17.067-17.067z" />
<glyph unicode="&#xe927;" glyph-name="presentation" d="M873.813-57.173c-10.24 0-17.067 6.827-17.067 17.067v354.987c0 10.24 6.827 17.067 17.067 17.067s17.067-6.827 17.067-17.067v-354.987c0-10.24-6.827-17.067-17.067-17.067zM873.813 738.133c-44.373 0-75.093 58.027-75.093 95.573 0 40.96 34.133 75.093 75.093 75.093s75.093-34.133 75.093-75.093c0-37.547-30.72-95.573-75.093-95.573zM873.813 874.667c-23.893 0-40.96-17.067-40.96-40.96s20.48-61.44 40.96-61.44 40.96 34.133 40.96 61.44c0 23.893-17.067 40.96-40.96 40.96zM948.907-57.173c-10.24 0-17.067 10.24-17.067 17.067l23.893 419.84c0 3.413 3.413 10.24 6.827 13.653 6.827 6.827 13.653 6.827 20.48 6.827 6.827 215.040-3.413 273.067-10.24 286.72h-30.72c-3.413 0-6.827-3.413-6.827-6.827-10.24-20.48-34.133-34.133-61.44-34.133s-51.2 13.653-61.44 34.133c0 3.413-3.413 6.827-6.827 6.827-10.24 0-184.32-30.72-245.76-40.96 0 0-3.413 0-3.413-3.413s3.413-3.413 3.413-3.413l218.453-20.48c10.24 0 17.067-6.827 17.067-17.067v-221.867l23.893-416.427c0-10.24-6.827-17.067-17.067-17.067s-17.067 6.827-17.067 17.067l-23.893 419.84v208.213l-204.8 20.48c-20.48 3.413-34.133 17.067-34.133 37.547s13.653 34.133 30.72 37.547c37.547 0 238.933 34.133 249.173 34.133 17.067 0 34.133-6.827 40.96-23.893 6.827-13.653 20.48-17.067 30.72-17.067s23.893 3.413 30.72 17.067c10.24 13.653 23.893 23.893 40.96 23.893h10.24c20.48 0 27.307 0 30.72-3.413 3.413 0 3.413-3.413 6.827-3.413 6.827-6.827 34.133-27.307 20.48-331.093 0-3.413-3.413-10.24-6.827-13.653-6.827-6.827-13.653-6.827-20.48-6.827l-20.48-406.187c0-6.827-6.827-13.653-17.067-13.653zM989.867 379.733c0-3.413 0 0 0 0zM665.6 140.8h-648.533c-6.827 0-17.067 10.24-17.067 17.067v716.8c0 10.24 10.24 17.067 17.067 17.067h682.667c10.24 0 17.067-6.827 17.067-17.067s-6.827-17.067-17.067-17.067h-665.6v-682.667h631.467c10.24 0 17.067-6.827 17.067-17.067s-6.827-17.067-17.067-17.067zM167.253 475.307c-30.72 0-58.027 27.307-58.027 58.027 0 17.067 6.827 30.72 17.067 40.96s27.307 17.067 40.96 17.067c30.72 0 58.027-27.307 58.027-58.027 3.413-30.72-23.893-58.027-58.027-58.027zM167.253 560.64c-6.827 0-13.653-3.413-17.067-6.827s-6.827-10.24-6.827-17.067c0-13.653 10.24-23.893 23.893-23.893s23.893 10.24 23.893 23.893c3.413 13.653-10.24 23.893-23.893 23.893zM382.293 625.493c-34.133 0-58.027 27.307-58.027 58.027 0 17.067 6.827 30.72 17.067 40.96s27.307 17.067 40.96 17.067c30.72 0 58.027-27.307 58.027-58.027 0-34.133-23.893-58.027-58.027-58.027zM382.293 707.413c-6.827 0-13.653-3.413-17.067-6.827s-6.827-10.24-6.827-17.067c0-13.653 10.24-23.893 23.893-23.893s23.893 10.24 23.893 23.893c0 13.653-10.24 23.893-23.893 23.893zM559.787 290.987c-30.72 0-58.027 27.307-58.027 58.027 0 17.067 6.827 30.72 17.067 40.96s23.893 17.067 40.96 17.067c30.72 0 58.027-27.307 58.027-58.027s-27.307-58.027-58.027-58.027zM559.787 372.907c-6.827 0-13.653-3.413-17.067-6.827s-6.827-10.24-6.827-17.067c0-13.653 10.24-23.893 23.893-23.893s23.893 10.24 23.893 23.893c0 13.653-10.24 23.893-23.893 23.893zM204.8 540.16c-6.827 0-10.24 3.413-13.653 6.827-6.827 6.827-3.413 17.067 3.413 23.893l136.533 102.4c6.827 6.827 17.067 3.413 23.893-3.413s3.413-17.067-3.413-23.893l-136.533-102.4c-3.413-3.413-6.827-3.413-10.24-3.413zM535.893 366.080c-6.827 0-13.653 3.413-13.653 10.24l-133.12 262.827c-3.413 6.827 0 17.067 6.827 23.893 6.827 3.413 17.067 0 23.893-6.827l133.12-262.827c3.413-6.827 0-17.067-6.827-23.893-3.413 0-6.827-3.413-10.24-3.413zM529.067-64c-10.24 0-17.067 6.827-17.067 17.067v133.12c0 10.24 6.827 17.067 17.067 17.067s17.067-6.827 17.067-17.067v-133.12c0-10.24-6.827-17.067-17.067-17.067zM628.053-64h-235.52c-10.24 0-17.067 6.827-17.067 17.067s6.827 17.067 17.067 17.067h235.52c10.24 0 17.067-6.827 17.067-17.067s-6.827-17.067-17.067-17.067zM392.533 857.6c-10.24 0-17.067 6.827-17.067 17.067v64.853c0 10.24 6.827 17.067 17.067 17.067s17.067-6.827 17.067-17.067v-64.853c0-10.24-6.827-17.067-17.067-17.067zM665.6 857.6c-10.24 0-17.067 6.827-17.067 17.067v64.853c0 10.24 6.827 17.067 17.067 17.067s17.067-6.827 17.067-17.067v-64.853c0-10.24-6.827-17.067-17.067-17.067z" />
<glyph unicode="&#xe928;" glyph-name="star_rounded" d="M512-60.587c-129.707 0-259.413 51.2-361.813 150.187-197.973 197.973-197.973 522.24 0 720.213s522.24 197.973 720.213 0c197.973-197.973 197.973-522.24 0-720.213-98.987-102.4-228.693-150.187-358.4-150.187zM174.080 782.507c-184.32-184.32-184.32-488.107 0-672.427s488.107-184.32 672.427 0c184.32 184.32 184.32 488.107 0 672.427-184.32 187.733-484.693 187.733-672.427 0zM341.333 161.28c-6.827 0-13.653 3.413-20.48 6.827-13.653 10.24-17.067 23.893-13.653 37.547l51.2 170.667-146.773 109.227c-6.827 13.653-10.24 27.307-6.827 40.96s17.067 23.893 30.72 23.893l180.907 3.413 61.44 170.667c3.413 13.653 17.067 23.893 34.133 23.893 13.653 0 27.307-10.24 34.133-23.893l61.44-170.667 177.493-3.413c13.653 0 27.307-10.24 30.72-23.893s0-30.72-13.653-37.547l-139.947-109.227 51.2-170.667c3.413-13.653 0-30.72-13.653-37.547-13.653-10.24-27.307-10.24-40.96 0l-150.187 102.4-150.187-102.4c-3.413-6.827-10.24-10.24-17.067-10.24zM512 311.467c3.413 0 6.827 0 10.24-3.413l160.427-109.227-58.027 180.907c-3.413 6.827 0 13.653 6.827 17.067l153.6 119.467-194.56 3.413c-6.827 0-13.653 3.413-17.067 10.24l-61.44 184.32-64.853-180.907c-3.413-6.827-10.24-10.24-17.067-10.24l-191.147-6.827 153.6-116.053c6.827-3.413 6.827-10.24 6.827-17.067l-58.027-184.32 160.427 109.227c3.413 0 6.827 3.413 10.24 3.413z" />
<glyph unicode="&#xe929;" glyph-name="user" d="M512-60.587c-279.893 0-508.587 228.693-508.587 508.587s228.693 508.587 508.587 508.587 508.587-228.693 508.587-508.587-228.693-508.587-508.587-508.587zM512 922.453c-262.827 0-474.453-211.627-474.453-474.453s211.627-474.453 474.453-474.453 474.453 211.627 474.453 474.453-215.040 474.453-474.453 474.453zM836.267 65.707h-6.827c-215.040 88.747-225.28 126.293-228.693 136.533v47.787c0 3.413 3.413 10.24 3.413 10.24 27.307 27.307 47.787 64.853 61.44 109.227 0 3.413 3.413 6.827 6.827 10.24 10.24 6.827 20.48 20.48 20.48 34.133 3.413 13.653-3.413 30.72-10.24 40.96-3.413 3.413-3.413 6.827-3.413 10.24v95.573c0 98.987-58.027 150.187-163.84 150.187s-163.84-54.613-163.84-150.187v-95.573c0-3.413 0-6.827-3.413-10.24-10.24-10.24-13.653-27.307-10.24-40.96s10.24-27.307 20.48-34.133c3.413-3.413 6.827-6.827 6.827-10.24 13.653-44.373 34.133-81.92 61.44-109.227 3.413-3.413 3.413-6.827 3.413-10.24v-44.373c-6.827-23.893-37.547-58.027-225.28-136.533-10.24-3.413-17.067 0-23.893 10.24s0 17.067 10.24 23.893c167.253 71.68 197.973 102.4 204.8 112.64v34.133c-27.307 30.72-47.787 68.267-61.44 112.64-17.067 13.653-27.307 34.133-30.72 54.613s3.413 44.373 13.653 61.44v92.16c0 116.053 75.093 184.32 197.973 184.32 126.293 0 197.973-68.267 197.973-184.32v-92.16c13.653-17.067 17.067-40.96 13.653-61.44s-13.653-40.96-30.72-54.613c-13.653-44.373-34.133-85.333-61.44-112.64v-34.133c3.413-6.827 34.133-40.96 208.213-116.053 10.24-3.413 13.653-13.653 10.24-23.893-3.413-6.827-10.24-10.24-17.067-10.24z" />
<glyph unicode="&#xe92a;" glyph-name="ok" horiz-adv-x="593" d="M297.086 432.198c145.383 0 263.901 118.519 263.901 263.901s-118.519 263.901-263.901 263.901c-146.963 0-265.481-118.519-265.481-263.901s118.519-263.901 265.481-263.901zM297.086 805.136c60.049 0 109.037-48.988 109.037-109.037s-48.988-109.037-109.037-109.037c-60.049 0-109.037 48.988-109.037 109.037-1.58 60.049 47.407 109.037 109.037 109.037zM402.963 215.704c53.728 12.642 105.877 33.185 153.284 63.21 36.346 22.123 47.407 71.111 23.704 107.457-22.123 36.346-71.111 47.407-107.457 23.704-107.457-67.951-248.099-67.951-355.556 0-36.346 22.123-83.753 12.642-107.457-23.704-20.543-36.346-9.481-83.753 26.864-105.877 47.407-30.025 99.556-50.568 153.284-63.21l-146.963-146.963c-30.025-30.025-30.025-79.012 0-109.037 15.802-15.802 34.765-22.123 55.309-22.123s39.506 7.901 55.309 22.123l145.383 145.383 145.383-145.383c30.025-30.025 79.012-30.025 109.037 0s30.025 79.012 0 109.037l-150.123 145.383z" />
<glyph unicode="&#xe92b;" glyph-name="chart" d="M273.067 345.6c-40.96 0-71.68 30.72-71.68 71.68s30.72 71.68 71.68 71.68 71.68-30.72 71.68-71.68c0-40.96-30.72-71.68-71.68-71.68zM273.067 454.827c-20.48 0-37.547-17.067-37.547-37.547s17.067-37.547 37.547-37.547 37.547 17.067 37.547 37.547-17.067 37.547-37.547 37.547zM515.413 144.213c-40.96 0-71.68 30.72-71.68 71.68s30.72 71.68 71.68 71.68 71.68-30.72 71.68-71.68-34.133-71.68-71.68-71.68zM515.413 253.44c-20.48 0-37.547-17.067-37.547-37.547s17.067-37.547 37.547-37.547 37.547 17.067 37.547 37.547-17.067 37.547-37.547 37.547zM754.347 546.987c-37.547 0-71.68 34.133-71.68 71.68s30.72 71.68 71.68 71.68 71.68-30.72 71.68-71.68-30.72-71.68-71.68-71.68zM754.347 659.627c-20.48 0-37.547-17.067-37.547-40.96s17.067-37.547 37.547-37.547 37.547 17.067 37.547 37.547-17.067 40.96-37.547 40.96zM1006.933 393.387c-3.413 0-6.827 0-10.24 3.413l-211.627 174.080c-6.827 6.827-6.827 17.067-3.413 23.893 6.827 6.827 17.067 6.827 23.893 3.413l208.213-174.080c6.827-6.827 6.827-17.067 3.413-23.893 0-3.413-6.827-6.827-10.24-6.827zM542.72 246.613c-3.413 0-6.827 0-10.24 3.413-6.827 3.413-10.24 13.653-6.827 23.893l184.32 310.613c3.413 6.827 17.067 10.24 23.893 6.827s10.24-13.653 6.827-23.893l-184.32-310.613c-3.413-10.24-6.827-10.24-13.653-10.24zM471.040 232.96c-3.413 0-6.827 0-10.24 3.413l-157.013 133.12c-6.827 6.827-6.827 17.067-3.413 23.893 6.827 6.827 17.067 6.827 23.893 3.413l157.013-133.12c6.827-6.827 6.827-17.067 3.413-23.893-3.413-3.413-6.827-6.827-13.653-6.827zM17.067 192c-3.413 0-10.24 3.413-13.653 6.827-6.827 6.827-3.413 17.067 3.413 23.893l211.627 174.080c6.827 6.827 17.067 3.413 23.893-3.413s3.413-17.067-3.413-23.893l-211.627-174.080c-3.413-3.413-6.827-3.413-10.24-3.413zM921.6-64h-819.2c-58.027 0-102.4 44.373-102.4 102.4v819.2c0 58.027 44.373 102.4 102.4 102.4h819.2c58.027 0 102.4-44.373 102.4-102.4v-819.2c0-58.027-44.373-102.4-102.4-102.4zM102.4 925.867c-37.547 0-68.267-30.72-68.267-68.267v-819.2c0-37.547 30.72-68.267 68.267-68.267h819.2c37.547 0 68.267 30.72 68.267 68.267v819.2c0 37.547-30.72 68.267-68.267 68.267h-819.2z" />
<glyph unicode="&#xe92c;" glyph-name="foulder" d="M965.973-29.867h-907.947c-30.72 0-58.027 27.307-58.027 61.44v839.68c0 27.307 27.307 54.613 58.027 54.613h153.6c6.827 0 30.72 0 75.093-98.987h85.333c10.24 0 17.067-6.827 17.067-17.067s-6.827-17.067-17.067-17.067h-98.987c-6.827 0-13.653 3.413-17.067 10.24-13.653 40.96-37.547 85.333-47.787 88.747h-150.187c-10.24 0-23.893-10.24-23.893-20.48v-839.68c0-17.067 10.24-27.307 23.893-27.307h907.947c13.653 0 23.893 10.24 23.893 27.307v737.28c0 10.24-10.24 20.48-23.893 20.48h-78.507c-10.24 0-17.067 6.827-17.067 17.067s6.827 17.067 17.067 17.067h81.92c30.72 0 58.027-23.893 58.027-54.613v-740.693c-3.413-30.72-27.307-58.027-61.44-58.027zM1006.933 615.253h-989.867c-6.827 0-17.067 6.827-17.067 17.067s6.827 17.067 17.067 17.067h989.867c10.24 0 17.067-6.827 17.067-17.067s-6.827-17.067-17.067-17.067zM921.6 615.253h-764.587c-6.827 0-13.653 6.827-17.067 13.653l-27.307 126.293c0 3.413 0 10.24 3.413 13.653s6.827 6.827 10.24 6.827l733.867 150.187c10.24 3.413 17.067-3.413 20.48-13.653l58.027-276.48c0-3.413 0-10.24-3.413-13.653s-6.827-6.827-13.653-6.827zM170.667 649.387h730.453l-51.2 238.933-699.733-143.36 20.48-95.573z" />
<glyph unicode="&#xe92d;" glyph-name="search" d="M1017.034-8.272l-376.163 376.163c48.762 62.694 83.592 139.32 83.592 229.878 0 202.014-160.218 362.231-362.231 362.231s-362.231-160.218-362.231-362.231c0-202.014 160.218-362.231 362.231-362.231 90.558 0 167.184 34.83 229.878 83.592l369.197-369.197c6.966-6.966 13.932-6.966 27.864-6.966s20.898 0 27.864 6.966 13.932 27.864 0 41.796zM69.66 597.769c0 160.218 132.354 292.571 292.571 292.571s292.571-132.354 292.571-292.571c0-160.218-132.354-292.571-292.571-292.571s-292.571 125.388-292.571 292.571z" />
<glyph unicode="&#xe92e;" glyph-name="menu" d="M0 819.2h1024v-102.4h-1024v102.4zM0 512h1024v-102.4h-1024v102.4zM0 204.8h1024v-102.4h-1024v102.4z" />
<glyph unicode="&#xe92f;" glyph-name="dots-horizontal-triple" d="M512 358.4c-56.554 0-102.4 45.846-102.4 102.4s45.846 102.4 102.4 102.4v0c56.554 0 102.4-45.846 102.4-102.4s-45.846-102.4-102.4-102.4v0zM512 665.6c-56.554 0-102.4 45.846-102.4 102.4s45.846 102.4 102.4 102.4v0c56.554 0 102.4-45.846 102.4-102.4s-45.846-102.4-102.4-102.4v0zM512 51.2c-56.554 0-102.4 45.846-102.4 102.4s45.846 102.4 102.4 102.4v0c56.554 0 102.4-45.846 102.4-102.4s-45.846-102.4-102.4-102.4v0z" />
<glyph unicode="&#xe97d;" glyph-name="spinner4" d="M192 448c0 12.18 0.704 24.196 2.030 36.022l-184.98 60.104c-5.916-31.14-9.050-63.264-9.050-96.126 0-147.23 62.166-279.922 161.654-373.324l114.284 157.296c-52.124 56.926-83.938 132.758-83.938 216.028zM832 448c0-83.268-31.812-159.102-83.938-216.028l114.284-157.296c99.488 93.402 161.654 226.094 161.654 373.324 0 32.862-3.132 64.986-9.048 96.126l-184.98-60.104c1.324-11.828 2.028-23.842 2.028-36.022zM576 761.592c91.934-18.662 169.544-76.742 214.45-155.826l184.978 60.102c-73.196 155.42-222.24 268.060-399.428 290.156v-194.432zM233.55 605.768c44.906 79.084 122.516 137.164 214.45 155.826v194.43c-177.188-22.096-326.23-134.736-399.426-290.154l184.976-60.102zM644.556 156.672c-40.39-18.408-85.272-28.672-132.556-28.672s-92.166 10.264-132.554 28.67l-114.292-157.31c73.206-40.366 157.336-63.36 246.846-63.36s173.64 22.994 246.848 63.36l-114.292 157.312z" />
<glyph unicode="&#xe984;" glyph-name="spinner11" d="M1024 576h-384l143.53 143.53c-72.53 72.526-168.96 112.47-271.53 112.47s-199-39.944-271.53-112.47c-72.526-72.53-112.47-168.96-112.47-271.53s39.944-199 112.47-271.53c72.53-72.526 168.96-112.47 271.53-112.47s199 39.944 271.528 112.472c6.056 6.054 11.86 12.292 17.456 18.668l96.32-84.282c-93.846-107.166-231.664-174.858-385.304-174.858-282.77 0-512 229.23-512 512s229.23 512 512 512c141.386 0 269.368-57.326 362.016-149.984l149.984 149.984v-384z" />
<glyph unicode="&#xe994;" glyph-name="tools" d="M933.79 349.75c-53.726 93.054-21.416 212.304 72.152 266.488l-100.626 174.292c-28.75-16.854-62.176-26.518-97.846-26.518-107.536 0-194.708 87.746-194.708 195.99h-201.258c0.266-33.41-8.074-67.282-25.958-98.252-53.724-93.056-173.156-124.702-266.862-70.758l-100.624-174.292c28.97-16.472 54.050-40.588 71.886-71.478 53.638-92.908 21.512-211.92-71.708-266.224l100.626-174.292c28.65 16.696 61.916 26.254 97.4 26.254 107.196 0 194.144-87.192 194.7-194.958h201.254c-0.086 33.074 8.272 66.57 25.966 97.218 53.636 92.906 172.776 124.594 266.414 71.012l100.626 174.29c-28.78 16.466-53.692 40.498-71.434 71.228zM512 240.668c-114.508 0-207.336 92.824-207.336 207.334 0 114.508 92.826 207.334 207.336 207.334 114.508 0 207.332-92.826 207.332-207.334-0.002-114.51-92.824-207.334-207.332-207.334z" />
<glyph unicode="&#xe997;" glyph-name="magic-wand" d="M256 768l-128 128h-64v-64l128-128zM320 960h64v-128h-64zM576 640h128v-64h-128zM640 832v64h-64l-128-128 64-64zM0 640h128v-64h-128zM320 384h64v-128h-64zM64 384v-64h64l128 128-64 64zM1010 78l-636.118 636.118c-18.668 18.668-49.214 18.668-67.882 0l-60.118-60.118c-18.668-18.668-18.668-49.214 0-67.882l636.118-636.118c18.668-18.668 49.214-18.668 67.882 0l60.118 60.118c18.668 18.668 18.668 49.214 0 67.882zM480 416l-192 192 64 64 192-192-64-64z" />
</font>
</defs>
</svg>
